# xmcd
#
# Track frame offsets:
#	150
#	13917
#	27532
#	40955
#	54022
#	67845
#	82795
#	96782
#	110892
#	124540
#	137807
#	152760
#	166282
#	180412
#	194455
#	208085
#	221902
#	234222
#	247315
#	259865
#	274185
#	286872
#	300007
#	312430
#
# Disc length: 4336 seconds
# Revision: 0
# Processed by: cddbd v1.5.2PL0 Copyright (c) Steve Scherf et al.
# Submitted via: dBpowerAMP V12.0
#
DISCID=5110ee18
DTITLE=Washboard Sam - Vol. 7. 1942 - 1949
DYEAR=1994
DGENRE=Blues
TTITLE0=Down South Woman Blues
TTITLE1=Ain't That a Shame
TTITLE2=Laid My Cards on the Table
TTITLE3=I Get the Blues at Bedtime
TTITLE4=You Can't Make the Grade
TTITLE5=You Can't Make the Grade
TTITLE6=I Just Couldn't Help It
TTITLE7=Soap and Water Blues
TTITLE8=Facing Life
TTITLE9=No Special Rider Blues
TTITLE10=Ramblin' With That Woman
TTITLE11=Love Me or Let Me Be
TTITLE12=She's Just My Size
TTITLE13=You Know How I Feel
TTITLE14=Fool About That Woman
TTITLE15=Dollar Is Your Best Friend
TTITLE16=No. 1 Drunkard
TTITLE17=I'm Just Tired
TTITLE18=Maybe You Love Me
TTITLE19=Nothing in Rambling
TTITLE20=You Said You Loved Me
TTITLE21=Market Street Swing
TTITLE22=Motherless Child Blues
TTITLE23=Gamblin' Man
EXTD=
EXTT0=
EXTT1=
EXTT2=
EXTT3=
EXTT4=
EXTT5=
EXTT6=
EXTT7=
EXTT8=
EXTT9=
EXTT10=
EXTT11=
EXTT12=
EXTT13=
EXTT14=
EXTT15=
EXTT16=
EXTT17=
EXTT18=
EXTT19=
EXTT20=
EXTT21=
EXTT22=
EXTT23=
PLAYORDER=
